%TF.GenerationSoftware,KiCad,Pcbnew,9.0.0-rc2*%
%TF.CreationDate,2026-03-07T19:59:08+03:00*%
%TF.ProjectId,resetter,72657365-7474-4657-922e-6b696361645f,rev?*%
%TF.SameCoordinates,Original*%
%TF.FileFunction,Copper,L2,Bot*%
%TF.FilePolarity,Positive*%
%FSLAX46Y46*%
G04 Gerber Fmt 4.6, Leading zero omitted, Abs format (unit mm)*
G04 Created by KiCad (PCBNEW 9.0.0-rc2) date 2026-03-07 19:59:08*
%MOMM*%
%LPD*%
G01*
G04 APERTURE LIST*
G04 Aperture macros list*
%AMRoundRect*
0 Rectangle with rounded corners*
0 $1 Rounding radius*
0 $2 $3 $4 $5 $6 $7 $8 $9 X,Y pos of 4 corners*
0 Add a 4 corners polygon primitive as box body*
4,1,4,$2,$3,$4,$5,$6,$7,$8,$9,$2,$3,0*
0 Add four circle primitives for the rounded corners*
1,1,$1+$1,$2,$3*
1,1,$1+$1,$4,$5*
1,1,$1+$1,$6,$7*
1,1,$1+$1,$8,$9*
0 Add four rect primitives between the rounded corners*
20,1,$1+$1,$2,$3,$4,$5,0*
20,1,$1+$1,$4,$5,$6,$7,0*
20,1,$1+$1,$6,$7,$8,$9,0*
20,1,$1+$1,$8,$9,$2,$3,0*%
G04 Aperture macros list end*
%TA.AperFunction,SMDPad,CuDef*%
%ADD10C,2.800000*%
%TD*%
%TA.AperFunction,SMDPad,CuDef*%
%ADD11RoundRect,0.250001X1.149999X1.149999X-1.149999X1.149999X-1.149999X-1.149999X1.149999X-1.149999X0*%
%TD*%
%TA.AperFunction,ViaPad*%
%ADD12C,0.600000*%
%TD*%
%TA.AperFunction,Conductor*%
%ADD13C,0.200000*%
%TD*%
G04 APERTURE END LIST*
D10*
%TO.P,J2,5,Pin_5*%
%TO.N,+5V*%
X114300000Y-72600000D03*
%TO.P,J2,4,Pin_4*%
%TO.N,MOSI*%
X118300000Y-72600000D03*
%TO.P,J2,3,Pin_3*%
%TO.N,MISO*%
X122300000Y-72600000D03*
%TO.P,J2,2,Pin_2*%
%TO.N,SCL*%
X126300000Y-72600000D03*
D11*
%TO.P,J2,1,Pin_1*%
%TO.N,GND*%
X130300000Y-72600000D03*
%TD*%
D12*
%TO.N,+5V*%
X125100000Y-65150000D03*
%TO.N,GND*%
X133650000Y-71050000D03*
X115000000Y-68700000D03*
%TO.N,+5V*%
X127100000Y-64150000D03*
%TO.N,GND*%
X131150000Y-68250000D03*
%TO.N,SCL*%
X128800000Y-70150000D03*
%TO.N,MISO*%
X123500000Y-69600000D03*
%TO.N,MOSI*%
X123150000Y-70800000D03*
%TO.N,+5V*%
X131800000Y-70400000D03*
X118000000Y-68300000D03*
%TO.N,GND*%
X114150000Y-69850000D03*
%TD*%
D13*
%TO.N,+5V*%
X131099971Y-69699971D02*
X131800000Y-70400000D01*
X131050029Y-69699971D02*
X131099971Y-69699971D01*
X126100000Y-65150000D02*
X127100000Y-64150000D01*
X125100000Y-65150000D02*
X126100000Y-65150000D01*
X124050000Y-68300000D02*
X118000000Y-68300000D01*
X127100000Y-65250000D02*
X124050000Y-68300000D01*
X127100000Y-65250000D02*
X127100000Y-65749942D01*
X127100000Y-65749942D02*
X131050029Y-69699971D01*
X127100000Y-64150000D02*
X127100000Y-65250000D01*
X118000000Y-68300000D02*
X118400000Y-68300000D01*
X117650000Y-69250000D02*
X114300000Y-72600000D01*
X117650000Y-68650000D02*
X117650000Y-69250000D01*
X118000000Y-68300000D02*
X117650000Y-68650000D01*
X128760000Y-67360000D02*
X131800000Y-70400000D01*
%TO.N,GND*%
X132100000Y-72600000D02*
X130300000Y-72600000D01*
X133650000Y-71050000D02*
X132100000Y-72600000D01*
X133650000Y-68350000D02*
X133650000Y-71050000D01*
X132550000Y-67250000D02*
X133650000Y-68350000D01*
X131450000Y-67950000D02*
X131850000Y-67950000D01*
X131850000Y-67950000D02*
X132550000Y-67250000D01*
X131150000Y-68250000D02*
X131450000Y-67950000D01*
%TO.N,SCL*%
X128750000Y-70150000D02*
X128800000Y-70150000D01*
X126300000Y-72600000D02*
X128750000Y-70150000D01*
%TO.N,MISO*%
X124000000Y-70100000D02*
X123500000Y-69600000D01*
X122749943Y-72600000D02*
X124000000Y-71349943D01*
X122300000Y-72600000D02*
X122749943Y-72600000D01*
X124000000Y-71349943D02*
X124000000Y-70100000D01*
%TO.N,MOSI*%
X120100000Y-70800000D02*
X118300000Y-72600000D01*
X123150000Y-70800000D02*
X120100000Y-70800000D01*
%TD*%
%TA.AperFunction,Conductor*%
%TO.N,GND*%
G36*
X126893362Y-66408386D02*
G01*
X126937709Y-66436887D01*
X130681313Y-70180491D01*
X130786138Y-70241010D01*
X130786912Y-70241473D01*
X130787817Y-70242451D01*
X130811022Y-70260257D01*
X130965425Y-70414660D01*
X130998910Y-70475983D01*
X130999361Y-70478148D01*
X131014014Y-70551807D01*
X131007788Y-70621398D01*
X130964925Y-70676576D01*
X130899036Y-70699822D01*
X130892397Y-70700000D01*
X130550000Y-70700000D01*
X130550000Y-72350000D01*
X132200000Y-72350000D01*
X132200000Y-71400027D01*
X132199999Y-71400014D01*
X132189506Y-71297310D01*
X132189505Y-71297306D01*
X132166357Y-71227450D01*
X132163955Y-71157621D01*
X132199686Y-71097579D01*
X132215160Y-71085352D01*
X132310289Y-71021789D01*
X132421789Y-70910289D01*
X132509394Y-70779179D01*
X132569737Y-70633497D01*
X132600500Y-70478842D01*
X132600500Y-70321158D01*
X132600500Y-70321155D01*
X132600499Y-70321153D01*
X132584844Y-70242451D01*
X132569737Y-70166503D01*
X132530975Y-70072922D01*
X132509397Y-70020827D01*
X132509390Y-70020814D01*
X132421789Y-69889711D01*
X132421786Y-69889707D01*
X132310292Y-69778213D01*
X132310288Y-69778210D01*
X132179185Y-69690609D01*
X132179172Y-69690602D01*
X132033501Y-69630264D01*
X132033491Y-69630261D01*
X131878149Y-69599361D01*
X131816238Y-69566976D01*
X131814660Y-69565425D01*
X131580492Y-69331257D01*
X131580491Y-69331255D01*
X131468687Y-69219451D01*
X131468684Y-69219449D01*
X129361416Y-67112181D01*
X129327931Y-67050858D01*
X129332915Y-66981166D01*
X129374787Y-66925233D01*
X129440251Y-66900816D01*
X129449097Y-66900500D01*
X134425500Y-66900500D01*
X134492539Y-66920185D01*
X134538294Y-66972989D01*
X134549500Y-67024500D01*
X134549500Y-74375500D01*
X134529815Y-74442539D01*
X134477011Y-74488294D01*
X134425500Y-74499500D01*
X132060522Y-74499500D01*
X131993483Y-74479815D01*
X131947728Y-74427011D01*
X131937784Y-74357853D01*
X131966809Y-74294297D01*
X131972841Y-74287819D01*
X132042315Y-74218344D01*
X132134356Y-74069123D01*
X132134358Y-74069118D01*
X132189505Y-73902696D01*
X132189506Y-73902689D01*
X132199999Y-73799985D01*
X132200000Y-73799972D01*
X132200000Y-72850000D01*
X130424000Y-72850000D01*
X130356961Y-72830315D01*
X130311206Y-72777511D01*
X130300000Y-72726000D01*
X130300000Y-72600000D01*
X130174000Y-72600000D01*
X130106961Y-72580315D01*
X130061206Y-72527511D01*
X130050000Y-72476000D01*
X130050000Y-70700000D01*
X129624217Y-70700000D01*
X129557178Y-70680315D01*
X129511423Y-70627511D01*
X129501479Y-70558353D01*
X129509656Y-70528548D01*
X129569735Y-70383501D01*
X129569737Y-70383497D01*
X129600500Y-70228842D01*
X129600500Y-70071158D01*
X129600500Y-70071155D01*
X129600499Y-70071153D01*
X129591942Y-70028133D01*
X129569737Y-69916503D01*
X129569735Y-69916498D01*
X129509397Y-69770827D01*
X129509390Y-69770814D01*
X129421789Y-69639711D01*
X129421786Y-69639707D01*
X129310292Y-69528213D01*
X129310288Y-69528210D01*
X129179185Y-69440609D01*
X129179172Y-69440602D01*
X129033501Y-69380264D01*
X129033489Y-69380261D01*
X128878845Y-69349500D01*
X128878842Y-69349500D01*
X128721158Y-69349500D01*
X128721155Y-69349500D01*
X128566510Y-69380261D01*
X128566498Y-69380264D01*
X128420827Y-69440602D01*
X128420814Y-69440609D01*
X128289711Y-69528210D01*
X128289707Y-69528213D01*
X128178213Y-69639707D01*
X128178210Y-69639711D01*
X128090609Y-69770814D01*
X128090602Y-69770827D01*
X128030264Y-69916498D01*
X128030261Y-69916508D01*
X128011777Y-70009433D01*
X127979392Y-70071344D01*
X127977841Y-70072922D01*
X127212665Y-70838098D01*
X127151342Y-70871583D01*
X127081650Y-70866599D01*
X127077553Y-70864986D01*
X126912207Y-70796498D01*
X126912205Y-70796497D01*
X126912204Y-70796497D01*
X126671561Y-70732017D01*
X126424575Y-70699501D01*
X126424570Y-70699500D01*
X126424565Y-70699500D01*
X126175435Y-70699500D01*
X126175429Y-70699500D01*
X126175424Y-70699501D01*
X125928438Y-70732017D01*
X125687792Y-70796498D01*
X125457638Y-70891830D01*
X125457623Y-70891837D01*
X125241873Y-71016400D01*
X125044225Y-71168060D01*
X125044218Y-71168066D01*
X124868066Y-71344218D01*
X124822877Y-71403110D01*
X124798665Y-71420788D01*
X124776014Y-71440417D01*
X124770745Y-71441174D01*
X124766449Y-71444312D01*
X124736529Y-71446094D01*
X124706856Y-71450361D01*
X124702015Y-71448150D01*
X124696702Y-71448467D01*
X124670562Y-71433786D01*
X124643300Y-71421337D01*
X124640422Y-71416860D01*
X124635782Y-71414254D01*
X124621732Y-71387778D01*
X124605524Y-71362560D01*
X124604474Y-71355258D01*
X124603030Y-71352537D01*
X124600501Y-71327625D01*
X124600501Y-71297306D01*
X124600501Y-71270885D01*
X124600500Y-71270881D01*
X124600500Y-70189060D01*
X124600501Y-70189047D01*
X124600501Y-70020944D01*
X124584728Y-69962080D01*
X124559577Y-69868216D01*
X124539528Y-69833489D01*
X124480524Y-69731290D01*
X124480518Y-69731282D01*
X124334573Y-69585337D01*
X124301088Y-69524014D01*
X124300637Y-69521847D01*
X124292668Y-69481783D01*
X124269737Y-69366503D01*
X124255137Y-69331255D01*
X124209397Y-69220827D01*
X124209390Y-69220814D01*
X124121789Y-69089711D01*
X124117924Y-69085001D01*
X124120127Y-69083192D01*
X124109378Y-69063508D01*
X124092623Y-69033201D01*
X124092645Y-69032863D01*
X124092483Y-69032566D01*
X124094957Y-68997958D01*
X124097242Y-68963484D01*
X124097442Y-68963212D01*
X124097467Y-68962874D01*
X124118227Y-68935141D01*
X124138819Y-68907332D01*
X124139177Y-68907156D01*
X124139339Y-68906941D01*
X124169707Y-68890255D01*
X124175528Y-68888048D01*
X124281785Y-68859577D01*
X124332558Y-68830263D01*
X124418716Y-68780520D01*
X124530520Y-68668716D01*
X124530520Y-68668714D01*
X124540724Y-68658511D01*
X124540728Y-68658506D01*
X126762347Y-66436887D01*
X126823670Y-66403402D01*
X126893362Y-66408386D01*
G37*
%TD.AperFunction*%
%TA.AperFunction,Conductor*%
G36*
X128028577Y-57907685D02*
G01*
X128074332Y-57960489D01*
X128085538Y-58011794D01*
X128095233Y-63837302D01*
X128075660Y-63904374D01*
X128022932Y-63950216D01*
X127953790Y-63960275D01*
X127890186Y-63931356D01*
X127856672Y-63884960D01*
X127809397Y-63770827D01*
X127809390Y-63770814D01*
X127721789Y-63639711D01*
X127721786Y-63639707D01*
X127610292Y-63528213D01*
X127610288Y-63528210D01*
X127479185Y-63440609D01*
X127479172Y-63440602D01*
X127333501Y-63380264D01*
X127333489Y-63380261D01*
X127178845Y-63349500D01*
X127178842Y-63349500D01*
X127021158Y-63349500D01*
X127021155Y-63349500D01*
X126866510Y-63380261D01*
X126866498Y-63380264D01*
X126720827Y-63440602D01*
X126720814Y-63440609D01*
X126589711Y-63528210D01*
X126589707Y-63528213D01*
X126478213Y-63639707D01*
X126478210Y-63639711D01*
X126390609Y-63770814D01*
X126390602Y-63770827D01*
X126330264Y-63916498D01*
X126330261Y-63916508D01*
X126299362Y-64071849D01*
X126266977Y-64133759D01*
X126265426Y-64135338D01*
X125887584Y-64513181D01*
X125860656Y-64527884D01*
X125834838Y-64544477D01*
X125828637Y-64545368D01*
X125826261Y-64546666D01*
X125799903Y-64549500D01*
X125679766Y-64549500D01*
X125612727Y-64529815D01*
X125610875Y-64528602D01*
X125479185Y-64440609D01*
X125479172Y-64440602D01*
X125333501Y-64380264D01*
X125333489Y-64380261D01*
X125178845Y-64349500D01*
X125178842Y-64349500D01*
X125021158Y-64349500D01*
X125021155Y-64349500D01*
X124866510Y-64380261D01*
X124866498Y-64380264D01*
X124720827Y-64440602D01*
X124720814Y-64440609D01*
X124589711Y-64528210D01*
X124589707Y-64528213D01*
X124478213Y-64639707D01*
X124478210Y-64639711D01*
X124390609Y-64770814D01*
X124390602Y-64770827D01*
X124330264Y-64916498D01*
X124330261Y-64916510D01*
X124299500Y-65071153D01*
X124299500Y-65228846D01*
X124330261Y-65383489D01*
X124330264Y-65383501D01*
X124390602Y-65529172D01*
X124390609Y-65529185D01*
X124478210Y-65660288D01*
X124478213Y-65660292D01*
X124589707Y-65771786D01*
X124589711Y-65771789D01*
X124720814Y-65859390D01*
X124720827Y-65859397D01*
X124817337Y-65899372D01*
X124866503Y-65919737D01*
X125021153Y-65950499D01*
X125021156Y-65950500D01*
X125021158Y-65950500D01*
X125178843Y-65950500D01*
X125195712Y-65947144D01*
X125241571Y-65938022D01*
X125311162Y-65944249D01*
X125366340Y-65987111D01*
X125389585Y-66053000D01*
X125373518Y-66120998D01*
X125353444Y-66147320D01*
X123837584Y-67663181D01*
X123776261Y-67696666D01*
X123749903Y-67699500D01*
X118579766Y-67699500D01*
X118512727Y-67679815D01*
X118510875Y-67678602D01*
X118379185Y-67590609D01*
X118379172Y-67590602D01*
X118233501Y-67530264D01*
X118233489Y-67530261D01*
X118078845Y-67499500D01*
X118078842Y-67499500D01*
X117921158Y-67499500D01*
X117921155Y-67499500D01*
X117766510Y-67530261D01*
X117766498Y-67530264D01*
X117620827Y-67590602D01*
X117620814Y-67590609D01*
X117489711Y-67678210D01*
X117489707Y-67678213D01*
X117378213Y-67789707D01*
X117378210Y-67789711D01*
X117290609Y-67920814D01*
X117290602Y-67920827D01*
X117230264Y-68066498D01*
X117230261Y-68066508D01*
X117199362Y-68221848D01*
X117183767Y-68261962D01*
X117176005Y-68274758D01*
X117169480Y-68281284D01*
X117119360Y-68368095D01*
X117118718Y-68369206D01*
X117118684Y-68369263D01*
X117090425Y-68418209D01*
X117090424Y-68418210D01*
X117090423Y-68418215D01*
X117049499Y-68570943D01*
X117049499Y-68570945D01*
X117049499Y-68739046D01*
X117049500Y-68739059D01*
X117049500Y-68949902D01*
X117029815Y-69016941D01*
X117013181Y-69037583D01*
X115212665Y-70838098D01*
X115151342Y-70871583D01*
X115081650Y-70866599D01*
X115077553Y-70864986D01*
X114912207Y-70796498D01*
X114912205Y-70796497D01*
X114912204Y-70796497D01*
X114671561Y-70732017D01*
X114424575Y-70699501D01*
X114424570Y-70699500D01*
X114424565Y-70699500D01*
X114175435Y-70699500D01*
X114175429Y-70699500D01*
X114175424Y-70699501D01*
X113928438Y-70732017D01*
X113687792Y-70796498D01*
X113457638Y-70891830D01*
X113457623Y-70891837D01*
X113241873Y-71016400D01*
X113044225Y-71168060D01*
X113044218Y-71168066D01*
X112868066Y-71344218D01*
X112868060Y-71344225D01*
X112722876Y-71533434D01*
X112666448Y-71574637D01*
X112596702Y-71578792D01*
X112535782Y-71544580D01*
X112503029Y-71482863D01*
X112500500Y-71457948D01*
X112500500Y-67024500D01*
X112520185Y-66957461D01*
X112572989Y-66911706D01*
X112624500Y-66900500D01*
X118245757Y-66900500D01*
X118246163Y-66900608D01*
X118311152Y-66900500D01*
X118377114Y-66900500D01*
X118377116Y-66900499D01*
X118377945Y-66900389D01*
X118377947Y-66900389D01*
X118419823Y-66889093D01*
X118440762Y-66883445D01*
X118440772Y-66883482D01*
X118440958Y-66883392D01*
X118504408Y-66866392D01*
X118504777Y-66866178D01*
X118505184Y-66866069D01*
X118561415Y-66833478D01*
X118618536Y-66800500D01*
X118618538Y-66800498D01*
X118618603Y-66800448D01*
X118618875Y-66800175D01*
X118619202Y-66799987D01*
X118665265Y-66753770D01*
X118711722Y-66707314D01*
X118711724Y-66707309D01*
X118712227Y-66706652D01*
X118712233Y-66706647D01*
X118744864Y-66649910D01*
X118777614Y-66593186D01*
X118777723Y-66592776D01*
X118777935Y-66592409D01*
X118794759Y-66529199D01*
X118811722Y-66465892D01*
X118811722Y-66465880D01*
X118811757Y-66465620D01*
X118811758Y-66465617D01*
X118811830Y-66465067D01*
X118811829Y-66465061D01*
X118811831Y-66465058D01*
X118811722Y-66399565D01*
X118811722Y-66334108D01*
X118811612Y-66333698D01*
X118797763Y-58012206D01*
X118817336Y-57945134D01*
X118870064Y-57899292D01*
X118921763Y-57888000D01*
X127961538Y-57888000D01*
X128028577Y-57907685D01*
G37*
%TD.AperFunction*%
%TD*%
M02*
