%TF.GenerationSoftware,KiCad,Pcbnew,9.0.0-rc2*%
%TF.CreationDate,2026-03-07T19:59:08+03:00*%
%TF.ProjectId,resetter,72657365-7474-4657-922e-6b696361645f,rev?*%
%TF.SameCoordinates,Original*%
%TF.FileFunction,Copper,L1,Top*%
%TF.FilePolarity,Positive*%
%FSLAX46Y46*%
G04 Gerber Fmt 4.6, Leading zero omitted, Abs format (unit mm)*
G04 Created by KiCad (PCBNEW 9.0.0-rc2) date 2026-03-07 19:59:08*
%MOMM*%
%LPD*%
G01*
G04 APERTURE LIST*
G04 Aperture macros list*
%AMRoundRect*
0 Rectangle with rounded corners*
0 $1 Rounding radius*
0 $2 $3 $4 $5 $6 $7 $8 $9 X,Y pos of 4 corners*
0 Add a 4 corners polygon primitive as box body*
4,1,4,$2,$3,$4,$5,$6,$7,$8,$9,$2,$3,0*
0 Add four circle primitives for the rounded corners*
1,1,$1+$1,$2,$3*
1,1,$1+$1,$4,$5*
1,1,$1+$1,$6,$7*
1,1,$1+$1,$8,$9*
0 Add four rect primitives between the rounded corners*
20,1,$1+$1,$2,$3,$4,$5,0*
20,1,$1+$1,$4,$5,$6,$7,0*
20,1,$1+$1,$6,$7,$8,$9,0*
20,1,$1+$1,$8,$9,$2,$3,0*%
G04 Aperture macros list end*
%TA.AperFunction,SMDPad,CuDef*%
%ADD10RoundRect,0.129465X-0.595535X-1.070535X0.595535X-1.070535X0.595535X1.070535X-0.595535X1.070535X0*%
%TD*%
%TA.AperFunction,SMDPad,CuDef*%
%ADD11RoundRect,0.135000X0.135000X0.185000X-0.135000X0.185000X-0.135000X-0.185000X0.135000X-0.185000X0*%
%TD*%
%TA.AperFunction,SMDPad,CuDef*%
%ADD12RoundRect,0.150000X-0.825000X-0.150000X0.825000X-0.150000X0.825000X0.150000X-0.825000X0.150000X0*%
%TD*%
%TA.AperFunction,SMDPad,CuDef*%
%ADD13RoundRect,0.135000X-0.185000X0.135000X-0.185000X-0.135000X0.185000X-0.135000X0.185000X0.135000X0*%
%TD*%
%TA.AperFunction,SMDPad,CuDef*%
%ADD14RoundRect,0.135000X-0.135000X-0.185000X0.135000X-0.185000X0.135000X0.185000X-0.135000X0.185000X0*%
%TD*%
%TA.AperFunction,ViaPad*%
%ADD15C,0.600000*%
%TD*%
%TA.AperFunction,Conductor*%
%ADD16C,0.200000*%
%TD*%
G04 APERTURE END LIST*
D10*
%TO.P,J1,4,Pin_4*%
%TO.N,+5V*%
X127150000Y-59400000D03*
%TO.P,J1,3,Pin_3*%
%TO.N,MOSI*%
X124650000Y-59400000D03*
%TO.P,J1,2,Pin_2*%
%TO.N,SCL*%
X122150000Y-59400000D03*
%TO.P,J1,1,Pin_1*%
%TO.N,GND*%
X119925000Y-59400000D03*
%TD*%
D11*
%TO.P,R3,2*%
%TO.N,SCL*%
X129950000Y-69700000D03*
%TO.P,R3,1*%
%TO.N,+5V*%
X130970000Y-69700000D03*
%TD*%
D12*
%TO.P,U1,8,VCC*%
%TO.N,+5V*%
X125675000Y-67045000D03*
%TO.P,U1,7,PB2*%
%TO.N,SCL*%
X125675000Y-68315000D03*
%TO.P,U1,6,PB1*%
%TO.N,MISO*%
X125675000Y-69585000D03*
%TO.P,U1,5,AREF/PB0*%
%TO.N,MOSI*%
X125675000Y-70855000D03*
%TO.P,U1,4,GND*%
%TO.N,GND*%
X120725000Y-70855000D03*
%TO.P,U1,3,XTAL2/PB4*%
%TO.N,unconnected-(U2-XTAL2{slash}PB4-Pad3)*%
X120725000Y-69585000D03*
%TO.P,U1,2,XTAL1/PB3*%
%TO.N,unconnected-(U2-XTAL1{slash}PB3-Pad2)*%
X120725000Y-68315000D03*
%TO.P,U1,1,~{RESET}/PB5*%
%TO.N,Net-(U2-~{RESET}{slash}PB5)*%
X120725000Y-67045000D03*
%TD*%
D13*
%TO.P,R2,2*%
%TO.N,MOSI*%
X130050000Y-72610000D03*
%TO.P,R2,1*%
%TO.N,+5V*%
X130050000Y-71590000D03*
%TD*%
D14*
%TO.P,C1,2*%
%TO.N,GND*%
X129910000Y-68250000D03*
%TO.P,C1,1*%
%TO.N,+5V*%
X128890000Y-68250000D03*
%TD*%
D13*
%TO.P,R1,2*%
%TO.N,Net-(U2-~{RESET}{slash}PB5)*%
X116800000Y-69510000D03*
%TO.P,R1,1*%
%TO.N,+5V*%
X116800000Y-68490000D03*
%TD*%
D15*
%TO.N,+5V*%
X125100000Y-65150000D03*
%TO.N,GND*%
X133650000Y-71050000D03*
X115000000Y-68700000D03*
%TO.N,+5V*%
X127100000Y-64150000D03*
%TO.N,GND*%
X131150000Y-68250000D03*
%TO.N,SCL*%
X128800000Y-70150000D03*
%TO.N,MISO*%
X123500000Y-69600000D03*
%TO.N,MOSI*%
X123150000Y-70800000D03*
%TO.N,+5V*%
X131800000Y-70400000D03*
X118000000Y-68300000D03*
%TO.N,GND*%
X114150000Y-69850000D03*
%TD*%
D16*
%TO.N,GND*%
X115000000Y-69250000D02*
X115000000Y-68700000D01*
X116605000Y-70855000D02*
X115000000Y-69250000D01*
X120725000Y-70855000D02*
X116605000Y-70855000D01*
%TO.N,+5V*%
X125100000Y-65400000D02*
X125100000Y-65150000D01*
X126750000Y-67050000D02*
X125100000Y-65400000D01*
X126750000Y-67050000D02*
X126900000Y-67050000D01*
%TO.N,Net-(U2-~{RESET}{slash}PB5)*%
X118260000Y-69510000D02*
X116800000Y-69510000D01*
X118350000Y-69600000D02*
X118260000Y-69510000D01*
X119100000Y-68850000D02*
X118350000Y-69600000D01*
X119100000Y-67300000D02*
X119100000Y-68850000D01*
X120725000Y-67045000D02*
X119355000Y-67045000D01*
X119355000Y-67045000D02*
X119100000Y-67300000D01*
%TO.N,GND*%
X133850000Y-72500000D02*
X133850000Y-71250000D01*
X133850000Y-71250000D02*
X133650000Y-71050000D01*
X123270000Y-73400000D02*
X132950000Y-73400000D01*
X120725000Y-70855000D02*
X123270000Y-73400000D01*
X132950000Y-73400000D02*
X133850000Y-72500000D01*
X119600000Y-59725000D02*
X119925000Y-59400000D01*
X119600000Y-65850000D02*
X119600000Y-59725000D01*
X119202283Y-66247717D02*
X119600000Y-65850000D01*
X119202283Y-66402283D02*
X119202283Y-66247717D01*
X118604566Y-67000000D02*
X116700000Y-67000000D01*
X116700000Y-67000000D02*
X115000000Y-68700000D01*
X119202283Y-66402283D02*
X118604566Y-67000000D01*
%TO.N,+5V*%
X117810000Y-68490000D02*
X118000000Y-68300000D01*
X116800000Y-68490000D02*
X117810000Y-68490000D01*
X127150000Y-64100000D02*
X127100000Y-64150000D01*
X127150000Y-59400000D02*
X127150000Y-64100000D01*
%TO.N,GND*%
X131150000Y-68250000D02*
X129910000Y-68250000D01*
%TO.N,MOSI*%
X131089943Y-72610000D02*
X130050000Y-72610000D01*
X132650000Y-68500000D02*
X132650000Y-71049943D01*
X128500645Y-67150000D02*
X131300000Y-67150000D01*
X124650000Y-63299355D02*
X128500645Y-67150000D01*
X124650000Y-59400000D02*
X124650000Y-63299355D01*
X131300000Y-67150000D02*
X132650000Y-68500000D01*
X132650000Y-71049943D02*
X131089943Y-72610000D01*
%TO.N,SCL*%
X128800000Y-70150000D02*
X129500000Y-70150000D01*
X129500000Y-70150000D02*
X129950000Y-69700000D01*
%TO.N,MOSI*%
X123150000Y-70800000D02*
X125620000Y-70800000D01*
X125620000Y-70800000D02*
X125675000Y-70855000D01*
%TO.N,MISO*%
X123515000Y-69585000D02*
X123500000Y-69600000D01*
X125675000Y-69585000D02*
X123515000Y-69585000D01*
%TO.N,+5V*%
X128210000Y-68360000D02*
X128750000Y-68360000D01*
X126900000Y-67050000D02*
X128210000Y-68360000D01*
X126350000Y-67050000D02*
X126750000Y-67050000D01*
X126345000Y-67045000D02*
X126350000Y-67050000D01*
X125675000Y-67045000D02*
X126345000Y-67045000D01*
X131100000Y-69700000D02*
X130970000Y-69700000D01*
X131800000Y-70400000D02*
X131100000Y-69700000D01*
X130050000Y-71590000D02*
X130050000Y-70620000D01*
X130050000Y-70620000D02*
X130970000Y-69700000D01*
%TO.N,MOSI*%
X128295000Y-70855000D02*
X130050000Y-72610000D01*
X125675000Y-70855000D02*
X128295000Y-70855000D01*
%TO.N,SCL*%
X124315000Y-68315000D02*
X125675000Y-68315000D01*
X122150000Y-66150000D02*
X124315000Y-68315000D01*
X122150000Y-59400000D02*
X122150000Y-66150000D01*
X126291000Y-68931000D02*
X129181000Y-68931000D01*
X129181000Y-68931000D02*
X129950000Y-69700000D01*
X125675000Y-68315000D02*
X126291000Y-68931000D01*
%TO.N,GND*%
X119105002Y-66499563D02*
X119202283Y-66402283D01*
%TD*%
%TA.AperFunction,Conductor*%
%TO.N,GND*%
G36*
X118465687Y-66897108D02*
G01*
X118523615Y-66936173D01*
X118551228Y-67000355D01*
X118542695Y-67062726D01*
X118540426Y-67068204D01*
X118540423Y-67068214D01*
X118540423Y-67068215D01*
X118499499Y-67220943D01*
X118499499Y-67220945D01*
X118499499Y-67389046D01*
X118499500Y-67389059D01*
X118499500Y-67454865D01*
X118479815Y-67521904D01*
X118427011Y-67567659D01*
X118357853Y-67577603D01*
X118328048Y-67569427D01*
X118323780Y-67567659D01*
X118233497Y-67530263D01*
X118233494Y-67530262D01*
X118233491Y-67530261D01*
X118078845Y-67499500D01*
X118078842Y-67499500D01*
X117921158Y-67499500D01*
X117921155Y-67499500D01*
X117766510Y-67530261D01*
X117766498Y-67530264D01*
X117620827Y-67590602D01*
X117620814Y-67590609D01*
X117489711Y-67678210D01*
X117489707Y-67678213D01*
X117408824Y-67759097D01*
X117347501Y-67792582D01*
X117277809Y-67787598D01*
X117258023Y-67778149D01*
X117239393Y-67767131D01*
X117239391Y-67767130D01*
X117239389Y-67767129D01*
X117085208Y-67722335D01*
X117085202Y-67722334D01*
X117049181Y-67719500D01*
X116550830Y-67719500D01*
X116550808Y-67719501D01*
X116514794Y-67722335D01*
X116360611Y-67767129D01*
X116360606Y-67767131D01*
X116222404Y-67848863D01*
X116222396Y-67848869D01*
X116108869Y-67962396D01*
X116108863Y-67962404D01*
X116027131Y-68100606D01*
X116027129Y-68100611D01*
X115982335Y-68254791D01*
X115982334Y-68254797D01*
X115979500Y-68290811D01*
X115979500Y-68689169D01*
X115979501Y-68689191D01*
X115982335Y-68725205D01*
X116027129Y-68879388D01*
X116027132Y-68879395D01*
X116061128Y-68936881D01*
X116078309Y-69004605D01*
X116061128Y-69063119D01*
X116027132Y-69120604D01*
X116027129Y-69120611D01*
X115982335Y-69274791D01*
X115982334Y-69274797D01*
X115979500Y-69310811D01*
X115979500Y-69709169D01*
X115979501Y-69709191D01*
X115982335Y-69745205D01*
X116027129Y-69899388D01*
X116027131Y-69899393D01*
X116108863Y-70037595D01*
X116108869Y-70037603D01*
X116222396Y-70151130D01*
X116222400Y-70151133D01*
X116222402Y-70151135D01*
X116360607Y-70232869D01*
X116396490Y-70243294D01*
X116514791Y-70277664D01*
X116514794Y-70277664D01*
X116514796Y-70277665D01*
X116550819Y-70280500D01*
X117049180Y-70280499D01*
X117085204Y-70277665D01*
X117239393Y-70232869D01*
X117377598Y-70151135D01*
X117377603Y-70151130D01*
X117381915Y-70146819D01*
X117443238Y-70113334D01*
X117469596Y-70110500D01*
X117999986Y-70110500D01*
X118061985Y-70127112D01*
X118118215Y-70159577D01*
X118270943Y-70200501D01*
X118270946Y-70200501D01*
X118429054Y-70200501D01*
X118429057Y-70200501D01*
X118581785Y-70159577D01*
X118718716Y-70080519D01*
X119040996Y-69758238D01*
X119102317Y-69724755D01*
X119172008Y-69729739D01*
X119227942Y-69771610D01*
X119250514Y-69831469D01*
X119251263Y-69831333D01*
X119252014Y-69835446D01*
X119252292Y-69836183D01*
X119252400Y-69837560D01*
X119252402Y-69837573D01*
X119298254Y-69995393D01*
X119298255Y-69995396D01*
X119381917Y-70136862D01*
X119386702Y-70143031D01*
X119384369Y-70144840D01*
X119411210Y-70193995D01*
X119406226Y-70263687D01*
X119385470Y-70296021D01*
X119387097Y-70297283D01*
X119382313Y-70303449D01*
X119298718Y-70444801D01*
X119252899Y-70602513D01*
X119252704Y-70604998D01*
X119252705Y-70605000D01*
X120601000Y-70605000D01*
X120668039Y-70624685D01*
X120713794Y-70677489D01*
X120725000Y-70729000D01*
X120725000Y-70855000D01*
X120851000Y-70855000D01*
X120918039Y-70874685D01*
X120963794Y-70927489D01*
X120975000Y-70979000D01*
X120975000Y-71655000D01*
X121615634Y-71655000D01*
X121615649Y-71654999D01*
X121652489Y-71652100D01*
X121652495Y-71652099D01*
X121810193Y-71606283D01*
X121810196Y-71606282D01*
X121951552Y-71522685D01*
X121951561Y-71522678D01*
X122067678Y-71406561D01*
X122067685Y-71406552D01*
X122151281Y-71265197D01*
X122186730Y-71143181D01*
X122224336Y-71084295D01*
X122287809Y-71055088D01*
X122356995Y-71064834D01*
X122409930Y-71110437D01*
X122420368Y-71130321D01*
X122421165Y-71132244D01*
X122439324Y-71176085D01*
X122440606Y-71179178D01*
X122440609Y-71179185D01*
X122528210Y-71310288D01*
X122528213Y-71310292D01*
X122639707Y-71421786D01*
X122639711Y-71421789D01*
X122770814Y-71509390D01*
X122770827Y-71509397D01*
X122916498Y-71569735D01*
X122916503Y-71569737D01*
X123071153Y-71600499D01*
X123071156Y-71600500D01*
X123071158Y-71600500D01*
X123228844Y-71600500D01*
X123228845Y-71600499D01*
X123383497Y-71569737D01*
X123529179Y-71509394D01*
X123555482Y-71491819D01*
X123660875Y-71421398D01*
X123727553Y-71400520D01*
X123729766Y-71400500D01*
X124274192Y-71400500D01*
X124341231Y-71420185D01*
X124361868Y-71436814D01*
X124448135Y-71523081D01*
X124589602Y-71606744D01*
X124631224Y-71618836D01*
X124747426Y-71652597D01*
X124747429Y-71652597D01*
X124747431Y-71652598D01*
X124784306Y-71655500D01*
X124784314Y-71655500D01*
X126565686Y-71655500D01*
X126565694Y-71655500D01*
X126602569Y-71652598D01*
X126602571Y-71652597D01*
X126602573Y-71652597D01*
X126644191Y-71640505D01*
X126760398Y-71606744D01*
X126901865Y-71523081D01*
X126933126Y-71491820D01*
X126994448Y-71458334D01*
X127020808Y-71455500D01*
X127994903Y-71455500D01*
X128061942Y-71475185D01*
X128082584Y-71491819D01*
X129193181Y-72602417D01*
X129226666Y-72663740D01*
X129229500Y-72690097D01*
X129229500Y-72809168D01*
X129229501Y-72809192D01*
X129232335Y-72845205D01*
X129277129Y-72999388D01*
X129277131Y-72999393D01*
X129358864Y-73137597D01*
X129358869Y-73137603D01*
X129472396Y-73251130D01*
X129472400Y-73251133D01*
X129472402Y-73251135D01*
X129610607Y-73332869D01*
X129651268Y-73344682D01*
X129764791Y-73377664D01*
X129764794Y-73377664D01*
X129764796Y-73377665D01*
X129800819Y-73380500D01*
X130299180Y-73380499D01*
X130335204Y-73377665D01*
X130489393Y-73332869D01*
X130627598Y-73251135D01*
X130627603Y-73251130D01*
X130631915Y-73246819D01*
X130693238Y-73213334D01*
X130719596Y-73210500D01*
X131003274Y-73210500D01*
X131003290Y-73210501D01*
X131010886Y-73210501D01*
X131168997Y-73210501D01*
X131169000Y-73210501D01*
X131321728Y-73169577D01*
X131377117Y-73137598D01*
X131458659Y-73090520D01*
X131570463Y-72978716D01*
X131570463Y-72978714D01*
X131580667Y-72968511D01*
X131580670Y-72968506D01*
X133130520Y-71418659D01*
X133209577Y-71281727D01*
X133250501Y-71129000D01*
X133250501Y-70970885D01*
X133250501Y-70963290D01*
X133250500Y-70963272D01*
X133250500Y-68420945D01*
X133250500Y-68420943D01*
X133215634Y-68290819D01*
X133215634Y-68290818D01*
X133215634Y-68290817D01*
X133209579Y-68268219D01*
X133209577Y-68268216D01*
X133209577Y-68268215D01*
X133180639Y-68218095D01*
X133130520Y-68131284D01*
X133018716Y-68019480D01*
X133018715Y-68019479D01*
X133014385Y-68015149D01*
X133014374Y-68015139D01*
X132111416Y-67112181D01*
X132077931Y-67050858D01*
X132082915Y-66981166D01*
X132124787Y-66925233D01*
X132190251Y-66900816D01*
X132199097Y-66900500D01*
X134425500Y-66900500D01*
X134492539Y-66920185D01*
X134538294Y-66972989D01*
X134549500Y-67024500D01*
X134549500Y-74375500D01*
X134529815Y-74442539D01*
X134477011Y-74488294D01*
X134425500Y-74499500D01*
X112624500Y-74499500D01*
X112557461Y-74479815D01*
X112511706Y-74427011D01*
X112500500Y-74375500D01*
X112500500Y-71105001D01*
X119252704Y-71105001D01*
X119252899Y-71107486D01*
X119298718Y-71265198D01*
X119382314Y-71406552D01*
X119382321Y-71406561D01*
X119498438Y-71522678D01*
X119498447Y-71522685D01*
X119639803Y-71606282D01*
X119639806Y-71606283D01*
X119797504Y-71652099D01*
X119797510Y-71652100D01*
X119834350Y-71654999D01*
X119834366Y-71655000D01*
X120475000Y-71655000D01*
X120475000Y-71105000D01*
X119252705Y-71105000D01*
X119252704Y-71105001D01*
X112500500Y-71105001D01*
X112500500Y-67024500D01*
X112520185Y-66957461D01*
X112572989Y-66911706D01*
X112624500Y-66900500D01*
X118245757Y-66900500D01*
X118246163Y-66900608D01*
X118311152Y-66900500D01*
X118377114Y-66900500D01*
X118377116Y-66900499D01*
X118377947Y-66900389D01*
X118395834Y-66895564D01*
X118465687Y-66897108D01*
G37*
%TD.AperFunction*%
%TA.AperFunction,Conductor*%
G36*
X131066942Y-67770185D02*
G01*
X131087584Y-67786819D01*
X132013181Y-68712416D01*
X132046666Y-68773739D01*
X132049500Y-68800097D01*
X132049500Y-69482351D01*
X132029815Y-69549390D01*
X131977011Y-69595145D01*
X131907853Y-69605089D01*
X131901307Y-69603968D01*
X131878148Y-69599361D01*
X131816237Y-69566975D01*
X131814660Y-69565425D01*
X131776301Y-69527066D01*
X131742816Y-69465743D01*
X131740364Y-69449109D01*
X131737665Y-69414796D01*
X131692869Y-69260607D01*
X131611135Y-69122402D01*
X131611133Y-69122400D01*
X131611130Y-69122396D01*
X131497603Y-69008869D01*
X131497595Y-69008863D01*
X131359393Y-68927131D01*
X131359388Y-68927129D01*
X131205208Y-68882335D01*
X131205202Y-68882334D01*
X131169181Y-68879500D01*
X130770830Y-68879500D01*
X130770798Y-68879502D01*
X130745574Y-68881486D01*
X130677197Y-68867118D01*
X130627443Y-68818064D01*
X130612108Y-68749898D01*
X130629124Y-68694740D01*
X130632408Y-68689187D01*
X130677166Y-68535128D01*
X130677167Y-68535122D01*
X130679931Y-68500000D01*
X130034000Y-68500000D01*
X129966961Y-68480315D01*
X129921206Y-68427511D01*
X129910000Y-68376000D01*
X129910000Y-68124000D01*
X129929685Y-68056961D01*
X129982489Y-68011206D01*
X130034000Y-68000000D01*
X130679931Y-68000000D01*
X130677167Y-67964877D01*
X130660961Y-67909094D01*
X130661036Y-67882837D01*
X130657300Y-67856853D01*
X130661134Y-67848456D01*
X130661161Y-67839225D01*
X130675418Y-67817179D01*
X130686325Y-67793297D01*
X130694091Y-67788305D01*
X130699104Y-67780555D01*
X130723016Y-67769717D01*
X130745103Y-67755523D01*
X130758622Y-67753579D01*
X130762742Y-67751712D01*
X130780038Y-67750500D01*
X130999903Y-67750500D01*
X131066942Y-67770185D01*
G37*
%TD.AperFunction*%
%TA.AperFunction,Conductor*%
G36*
X120118039Y-59419685D02*
G01*
X120163794Y-59472489D01*
X120175000Y-59524000D01*
X120175000Y-61099999D01*
X120584094Y-61099999D01*
X120584119Y-61099998D01*
X120619788Y-61097191D01*
X120772508Y-61052822D01*
X120772511Y-61052821D01*
X120909401Y-60971865D01*
X120909410Y-60971858D01*
X120949464Y-60931804D01*
X121010787Y-60898318D01*
X121080478Y-60903302D01*
X121124827Y-60931803D01*
X121165280Y-60972256D01*
X121165284Y-60972259D01*
X121165286Y-60972261D01*
X121302287Y-61053283D01*
X121347684Y-61066472D01*
X121460095Y-61099131D01*
X121518981Y-61136737D01*
X121548187Y-61200209D01*
X121549500Y-61218207D01*
X121549500Y-66070939D01*
X121549499Y-66070943D01*
X121549499Y-66092686D01*
X121549499Y-66120502D01*
X121537938Y-66159872D01*
X121533098Y-66176356D01*
X121529813Y-66187541D01*
X121499032Y-66214212D01*
X121477010Y-66233294D01*
X121477008Y-66233294D01*
X121477008Y-66233295D01*
X121477000Y-66233296D01*
X121425499Y-66244500D01*
X119834298Y-66244500D01*
X119797432Y-66247401D01*
X119797426Y-66247402D01*
X119639606Y-66293254D01*
X119639603Y-66293255D01*
X119498137Y-66376917D01*
X119498129Y-66376923D01*
X119466874Y-66408180D01*
X119405552Y-66441666D01*
X119379192Y-66444500D01*
X119275940Y-66444500D01*
X119235019Y-66455464D01*
X119235019Y-66455465D01*
X119199218Y-66465058D01*
X119123215Y-66485423D01*
X118997805Y-66557828D01*
X118992006Y-66559234D01*
X118987503Y-66563150D01*
X118958443Y-66567376D01*
X118929905Y-66574300D01*
X118924265Y-66572348D01*
X118918361Y-66573207D01*
X118891630Y-66561052D01*
X118863878Y-66551447D01*
X118860189Y-66546755D01*
X118854757Y-66544286D01*
X118838839Y-66519606D01*
X118820688Y-66496525D01*
X118819288Y-66489294D01*
X118816886Y-66485570D01*
X118811807Y-66450651D01*
X118811722Y-66399565D01*
X118811722Y-66334108D01*
X118811722Y-66327102D01*
X118811597Y-66325249D01*
X118802915Y-61108036D01*
X118822487Y-61040968D01*
X118875215Y-60995126D01*
X118944357Y-60985067D01*
X118990035Y-61001102D01*
X119077488Y-61052821D01*
X119077491Y-61052822D01*
X119230207Y-61097191D01*
X119230213Y-61097192D01*
X119265892Y-61099999D01*
X119674999Y-61099999D01*
X119675000Y-61099998D01*
X119675000Y-59524000D01*
X119694685Y-59456961D01*
X119747489Y-59411206D01*
X119799000Y-59400000D01*
X120051000Y-59400000D01*
X120118039Y-59419685D01*
G37*
%TD.AperFunction*%
%TD*%
M02*
